<svg version="1.1" id="Layer_1" xmlns="http://www.w3.org/2000/svg" xmlns:xlink="http://www.w3.org/1999/xlink" x="0px" y="0px"
	 width="100%" viewBox="0 0 800 800" enable-background="new 0 0 800 800" xml:space="preserve">
<path fill="#FFFFFF" opacity="1.000000" stroke="none" 
	d="
M369.000000,801.000000 
	C246.000000,801.000000 123.500000,801.000000 1.000000,801.000000 
	C1.000000,534.333313 1.000000,267.666656 1.000000,1.000000 
	C267.666656,1.000000 534.333313,1.000000 801.000000,1.000000 
	C801.000000,267.666656 801.000000,534.333313 801.000000,801.000000 
	C657.166687,801.000000 513.333313,801.000000 369.000000,801.000000 
M138.500000,225.000000 
	C102.413414,225.000000 66.326836,225.000000 30.293964,225.000000 
	C30.293964,342.649719 30.293964,459.695404 30.293964,576.697998 
	C86.644890,576.697998 142.701324,576.697998 198.705963,576.697998 
	C198.705963,459.350128 198.705963,342.304413 198.705963,225.000000 
	C178.775345,225.000000 159.137680,225.000000 138.500000,225.000000 
M618.503357,577.000000 
	C669.586792,577.000000 720.670288,577.000000 771.708374,577.000000 
	C771.708374,459.355133 771.708374,342.309387 771.708374,225.299652 
	C715.359802,225.299652 659.303345,225.299652 603.291870,225.299652 
	C603.291870,342.645325 603.291870,459.691071 603.291870,577.000000 
	C608.222473,577.000000 612.863708,577.000000 618.503357,577.000000 
M413.947388,264.578217 
	C409.210602,256.072906 404.473785,247.567612 399.381805,238.424545 
	C388.088135,258.777802 377.206970,278.387695 366.318604,298.010590 
	C354.344543,291.197418 342.502502,284.459381 330.526123,277.644867 
	C330.220734,278.632050 329.977997,278.981720 330.050415,279.244507 
	C334.933868,296.962067 339.831726,314.675720 344.752899,332.382843 
	C348.811371,346.985779 352.934235,361.570984 356.919403,376.193817 
	C357.292206,377.561737 356.879211,379.143829 356.831055,380.626465 
	C355.312500,380.009888 353.430878,379.770294 352.334930,378.714874 
	C345.734131,372.357880 339.314697,365.812653 332.832153,359.332825 
	C323.992523,350.496826 315.120728,341.692688 306.332672,332.805725 
	C304.338409,330.789001 303.179810,330.158264 301.206055,333.135925 
	C296.560822,340.143799 291.445282,346.839905 286.574066,353.587280 
	C271.397247,349.954712 256.362183,346.356049 240.618301,342.587738 
	C247.988739,362.637817 254.926498,381.510895 262.068909,400.940704 
	C254.825119,405.024689 247.460159,409.176971 239.852539,413.466095 
	C267.715912,433.894409 295.208588,454.050934 322.616028,474.144958 
	C317.901550,483.241394 313.227600,492.259644 308.253784,501.856506 
	C334.488373,499.419983 359.621918,497.085724 385.282715,494.702484 
	C385.282715,517.761475 385.282715,539.828674 385.282715,561.787476 
	C395.350891,561.787476 404.966461,561.787476 415.017242,561.787476 
	C415.017242,539.504944 415.017242,517.429443 415.017242,494.754486 
	C440.605530,497.123169 465.709076,499.446960 491.239075,501.810272 
	C486.052246,492.288727 481.150665,483.290802 476.161743,474.132538 
	C503.814392,454.040192 531.345093,434.036469 559.260376,413.753296 
	C557.922302,412.823639 556.715515,411.817413 555.363525,411.075867 
	C550.399963,408.353516 545.462402,405.564911 540.364441,403.114594 
	C537.690369,401.829315 536.733032,400.531128 537.936035,397.552704 
	C540.226501,391.881836 542.157166,386.066376 544.273254,380.324188 
	C548.809753,368.013672 553.369202,355.711609 558.082703,342.964050 
	C556.470154,343.121796 555.325500,343.088806 554.258240,343.360229 
	C541.748352,346.541870 529.263123,349.821472 516.736572,352.935364 
	C514.528687,353.484222 512.639648,353.808167 510.798553,350.854187 
	C506.455658,343.886139 501.229187,337.468842 496.105408,330.481506 
	C477.327362,348.769684 458.867981,366.747528 439.453827,385.655212 
	C449.754700,349.043152 459.689545,313.731873 469.988098,277.128021 
	C457.038391,284.348419 444.805084,291.169434 432.295044,298.144684 
	C430.444214,294.510223 428.808228,290.994843 426.908295,287.628418 
	C422.690643,280.155365 418.340668,272.756989 413.947388,264.578217 
z"/>
<path fill="#0D3464" opacity="1.000000" stroke="none" 
	d="
M139.000000,225.000000 
	C159.137680,225.000000 178.775345,225.000000 198.705963,225.000000 
	C198.705963,342.304413 198.705963,459.350128 198.705963,576.697998 
	C142.701324,576.697998 86.644890,576.697998 30.293964,576.697998 
	C30.293964,459.695404 30.293964,342.649719 30.293964,225.000000 
	C66.326836,225.000000 102.413414,225.000000 139.000000,225.000000 
z"/>
<path fill="#0D3464" opacity="1.000000" stroke="none" 
	d="
M618.004150,577.000000 
	C612.863708,577.000000 608.222473,577.000000 603.291870,577.000000 
	C603.291870,459.691071 603.291870,342.645325 603.291870,225.299652 
	C659.303345,225.299652 715.359802,225.299652 771.708374,225.299652 
	C771.708374,342.309387 771.708374,459.355133 771.708374,577.000000 
	C720.670288,577.000000 669.586792,577.000000 618.004150,577.000000 
z"/>
<path fill="#0D3464" opacity="1.000000" stroke="none" 
	d="
M413.996002,264.953186 
	C418.340668,272.756989 422.690643,280.155365 426.908295,287.628418 
	C428.808228,290.994843 430.444214,294.510223 432.295044,298.144684 
	C444.805084,291.169434 457.038391,284.348419 469.988098,277.128021 
	C459.689545,313.731873 449.754700,349.043152 439.453827,385.655212 
	C458.867981,366.747528 477.327362,348.769684 496.105408,330.481506 
	C501.229187,337.468842 506.455658,343.886139 510.798553,350.854187 
	C512.639648,353.808167 514.528687,353.484222 516.736572,352.935364 
	C529.263123,349.821472 541.748352,346.541870 554.258240,343.360229 
	C555.325500,343.088806 556.470154,343.121796 558.082703,342.964050 
	C553.369202,355.711609 548.809753,368.013672 544.273254,380.324188 
	C542.157166,386.066376 540.226501,391.881836 537.936035,397.552704 
	C536.733032,400.531128 537.690369,401.829315 540.364441,403.114594 
	C545.462402,405.564911 550.399963,408.353516 555.363525,411.075867 
	C556.715515,411.817413 557.922302,412.823639 559.260376,413.753296 
	C531.345093,434.036469 503.814392,454.040192 476.161743,474.132538 
	C481.150665,483.290802 486.052246,492.288727 491.239075,501.810272 
	C465.709076,499.446960 440.605530,497.123169 415.017242,494.754486 
	C415.017242,517.429443 415.017242,539.504944 415.017242,561.787476 
	C404.966461,561.787476 395.350891,561.787476 385.282715,561.787476 
	C385.282715,539.828674 385.282715,517.761475 385.282715,494.702484 
	C359.621918,497.085724 334.488373,499.419983 308.253784,501.856506 
	C313.227600,492.259644 317.901550,483.241394 322.616028,474.144958 
	C295.208588,454.050934 267.715912,433.894409 239.852539,413.466095 
	C247.460159,409.176971 254.825119,405.024689 262.068909,400.940704 
	C254.926498,381.510895 247.988739,362.637817 240.618301,342.587738 
	C256.362183,346.356049 271.397247,349.954712 286.574066,353.587280 
	C291.445282,346.839905 296.560822,340.143799 301.206055,333.135925 
	C303.179810,330.158264 304.338409,330.789001 306.332672,332.805725 
	C315.120728,341.692688 323.992523,350.496826 332.832153,359.332825 
	C339.314697,365.812653 345.734131,372.357880 352.334930,378.714874 
	C353.430878,379.770294 355.312500,380.009888 356.831055,380.626465 
	C356.879211,379.143829 357.292206,377.561737 356.919403,376.193817 
	C352.934235,361.570984 348.811371,346.985779 344.752899,332.382843 
	C339.831726,314.675720 334.933868,296.962067 330.050415,279.244507 
	C329.977997,278.981720 330.220734,278.632050 330.526123,277.644867 
	C342.502502,284.459381 354.344543,291.197418 366.318604,298.010590 
	C377.206970,278.387695 388.088135,258.777802 399.381805,238.424545 
	C404.473785,247.567612 409.210602,256.072906 413.996002,264.953186 
z"/>
</svg>