<svg version="1.1" id="Layer_1" xmlns="http://www.w3.org/2000/svg" xmlns:xlink="http://www.w3.org/1999/xlink" x="0px" y="0px"
	 width="100%" viewBox="0 0 800 800" enable-background="new 0 0 800 800" xml:space="preserve">
<path fill="#FFFFFF" opacity="1.000000" stroke="none" 
	d="
M524.000000,801.000000 
	C349.333344,801.000000 175.166672,801.000000 1.000000,801.000000 
	C1.000000,534.333313 1.000000,267.666656 1.000000,1.000000 
	C267.666656,1.000000 534.333313,1.000000 801.000000,1.000000 
	C801.000000,267.666656 801.000000,534.333313 801.000000,801.000000 
	C708.833313,801.000000 616.666687,801.000000 524.000000,801.000000 
M374.000000,500.500000 
	C374.000000,545.588928 374.000000,590.677917 374.000000,635.675415 
	C406.009857,635.675415 437.407196,635.675415 469.240540,635.675415 
	C469.240540,573.289429 469.240540,511.227142 469.240540,448.733978 
	C571.070801,448.733978 672.462769,448.733978 773.631104,448.733978 
	C773.631104,416.567749 773.631104,384.836487 773.631104,352.675507 
	C671.870972,352.675507 570.479309,352.675507 468.827393,352.675507 
	C468.827393,290.298035 468.827393,228.354568 468.827393,166.236374 
	C437.167908,166.236374 405.771118,166.236374 373.935852,166.236374 
	C373.935852,228.533295 373.935852,290.595612 373.935852,353.089600 
	C272.106110,353.089600 170.714188,353.089600 69.280594,353.089600 
	C69.280594,385.254669 69.280594,416.984924 69.280594,449.147827 
	C170.952286,449.147827 272.344208,449.147827 374.000000,449.147827 
	C374.000000,466.220337 374.000000,482.860168 374.000000,500.500000 
M206.269043,211.772812 
	C206.017944,211.617294 205.774033,211.445648 205.506714,211.326538 
	C205.473038,211.311554 205.215485,211.586151 205.230927,211.704468 
	C205.984100,217.476776 206.840042,223.236984 207.502182,229.019440 
	C208.180069,234.939484 208.670166,240.881012 209.339676,247.820694 
	C196.579956,246.197556 184.992401,244.723526 173.504089,243.262115 
	C173.504089,254.449921 173.504089,265.520813 173.504089,276.894501 
	C185.101471,275.434570 196.806000,273.961151 209.697739,272.338318 
	C208.027267,285.246765 206.513000,296.948151 205.018600,308.495941 
	C216.531723,308.495941 227.604340,308.495941 238.693832,308.495941 
	C237.254089,296.853790 235.806519,285.148407 234.214920,272.278259 
	C247.320343,273.975616 259.033508,275.492645 270.453430,276.971680 
	C270.453430,265.443939 270.453430,254.372787 270.453430,243.308731 
	C258.823486,244.745331 247.121826,246.190781 234.160324,247.791870 
	C235.805847,234.658112 237.270035,222.971710 238.647476,211.977722 
	C227.975800,211.977722 217.554520,211.977722 206.269043,211.772812 
M205.006195,497.406403 
	C206.598373,507.780304 208.190552,518.154236 209.986893,529.858398 
	C196.740372,528.249817 185.138565,526.840942 173.503967,525.428101 
	C173.503967,536.338501 173.503967,547.532104 173.503967,558.886414 
	C185.224350,557.442627 196.927841,556.000977 209.665222,554.431946 
	C208.031021,567.354248 206.551239,579.055603 205.104034,590.499146 
	C216.654144,590.499146 227.733063,590.499146 238.693207,590.499146 
	C237.247467,578.754639 235.805313,567.039246 234.257492,554.465576 
	C247.312820,556.104675 258.972015,557.568481 270.451965,559.009766 
	C270.451965,547.382141 270.451965,536.412842 270.451965,525.401184 
	C258.869141,526.784302 247.051331,528.195496 234.131882,529.738220 
	C235.800171,516.596252 237.269196,505.024048 238.653046,494.122742 
	C227.462173,494.122742 216.370590,494.122742 205.000702,494.122742 
	C205.000702,494.587372 205.000702,495.563721 205.006195,497.406403 
M591.009094,274.491089 
	C596.840881,273.897430 602.672668,273.303772 609.254944,272.633698 
	C607.617737,285.187531 606.082703,296.957886 604.577942,308.496338 
	C615.903809,308.496338 627.320129,308.496338 638.405273,308.496338 
	C636.885742,296.835785 635.351929,285.065918 633.697632,272.371674 
	C646.423950,273.954803 658.110229,275.408539 669.500000,276.825378 
	C669.500000,265.340942 669.500000,254.377045 669.500000,243.396469 
	C657.948303,244.801422 646.232117,246.226364 633.664246,247.754898 
	C635.359009,234.793182 636.897888,223.023544 638.398071,211.549957 
	C627.074951,211.549957 615.674683,211.549957 604.486206,211.549957 
	C606.045105,223.139084 607.615845,234.816208 609.354004,247.737701 
	C596.869446,246.230804 585.137207,244.814697 573.500000,243.410065 
	C573.500000,254.389664 573.500000,265.488190 573.500000,276.903473 
	C579.007019,276.257690 584.609619,275.600739 591.009094,274.491089 
M621.500732,590.000000 
	C627.294434,590.000000 633.088074,590.000000 638.317444,590.000000 
	C636.852295,578.685120 635.342041,567.022156 633.713501,554.445862 
	C646.322510,556.010559 658.020569,557.462219 669.500000,558.886719 
	C669.500000,547.311523 669.500000,536.210815 669.500000,525.507080 
	C657.772766,526.893127 646.014832,528.282776 633.633667,529.746094 
	C635.348938,516.731140 636.889038,505.044769 638.338928,494.043549 
	C627.203674,494.043549 615.797058,494.043549 604.521423,494.043549 
	C606.011597,505.126221 607.592773,516.885498 609.331848,529.819397 
	C596.706970,528.290833 585.083130,526.883545 573.500000,525.481079 
	C573.500000,536.353821 573.500000,547.589111 573.500000,558.893433 
	C585.289124,557.440796 597.022644,555.995056 609.288086,554.483765 
	C607.610840,567.294250 606.080322,578.984009 604.638062,590.000000 
	C609.770935,590.000000 615.142090,590.000000 621.500732,590.000000 
z"/>
<path fill="#0D3464" opacity="1.000000" stroke="none" 
	d="
M374.000000,500.000000 
	C374.000000,482.860168 374.000000,466.220337 374.000000,449.147827 
	C272.344208,449.147827 170.952286,449.147827 69.280594,449.147827 
	C69.280594,416.984924 69.280594,385.254669 69.280594,353.089600 
	C170.714188,353.089600 272.106110,353.089600 373.935852,353.089600 
	C373.935852,290.595612 373.935852,228.533295 373.935852,166.236374 
	C405.771118,166.236374 437.167908,166.236374 468.827393,166.236374 
	C468.827393,228.354568 468.827393,290.298035 468.827393,352.675507 
	C570.479309,352.675507 671.870972,352.675507 773.631104,352.675507 
	C773.631104,384.836487 773.631104,416.567749 773.631104,448.733978 
	C672.462769,448.733978 571.070801,448.733978 469.240540,448.733978 
	C469.240540,511.227142 469.240540,573.289429 469.240540,635.675415 
	C437.407196,635.675415 406.009857,635.675415 374.000000,635.675415 
	C374.000000,590.677917 374.000000,545.588928 374.000000,500.000000 
z"/>
<path fill="#0D3464" opacity="1.000000" stroke="none" 
	d="
M206.701141,211.875275 
	C217.554520,211.977722 227.975800,211.977722 238.647476,211.977722 
	C237.270035,222.971710 235.805847,234.658112 234.160324,247.791870 
	C247.121826,246.190781 258.823486,244.745331 270.453430,243.308731 
	C270.453430,254.372787 270.453430,265.443939 270.453430,276.971680 
	C259.033508,275.492645 247.320343,273.975616 234.214920,272.278259 
	C235.806519,285.148407 237.254089,296.853790 238.693832,308.495941 
	C227.604340,308.495941 216.531723,308.495941 205.018600,308.495941 
	C206.513000,296.948151 208.027267,285.246765 209.697739,272.338318 
	C196.806000,273.961151 185.101471,275.434570 173.504089,276.894501 
	C173.504089,265.520813 173.504089,254.449921 173.504089,243.262115 
	C184.992401,244.723526 196.579956,246.197556 209.339676,247.820694 
	C208.670166,240.881012 208.180069,234.939484 207.502182,229.019440 
	C206.840042,223.236984 205.984100,217.476776 205.230927,211.704468 
	C205.215485,211.586151 205.473038,211.311554 205.506714,211.326538 
	C205.774033,211.445648 206.017944,211.617294 206.701141,211.875275 
z"/>
<path fill="#0D3464" opacity="1.000000" stroke="none" 
	d="
M205.003448,496.973267 
	C205.000702,495.563721 205.000702,494.587372 205.000702,494.122742 
	C216.370590,494.122742 227.462173,494.122742 238.653046,494.122742 
	C237.269196,505.024048 235.800171,516.596252 234.131882,529.738220 
	C247.051331,528.195496 258.869141,526.784302 270.451965,525.401184 
	C270.451965,536.412842 270.451965,547.382141 270.451965,559.009766 
	C258.972015,557.568481 247.312820,556.104675 234.257492,554.465576 
	C235.805313,567.039246 237.247467,578.754639 238.693207,590.499146 
	C227.733063,590.499146 216.654144,590.499146 205.104034,590.499146 
	C206.551239,579.055603 208.031021,567.354248 209.665222,554.431946 
	C196.927841,556.000977 185.224350,557.442627 173.503967,558.886414 
	C173.503967,547.532104 173.503967,536.338501 173.503967,525.428101 
	C185.138565,526.840942 196.740372,528.249817 209.986893,529.858398 
	C208.190552,518.154236 206.598373,507.780304 205.003448,496.973267 
z"/>
<path fill="#0D3464" opacity="1.000000" stroke="none" 
	d="
M590.610657,274.717407 
	C584.609619,275.600739 579.007019,276.257690 573.500000,276.903473 
	C573.500000,265.488190 573.500000,254.389664 573.500000,243.410065 
	C585.137207,244.814697 596.869446,246.230804 609.354004,247.737701 
	C607.615845,234.816208 606.045105,223.139084 604.486206,211.549957 
	C615.674683,211.549957 627.074951,211.549957 638.398071,211.549957 
	C636.897888,223.023544 635.359009,234.793182 633.664246,247.754898 
	C646.232117,246.226364 657.948303,244.801422 669.500000,243.396469 
	C669.500000,254.377045 669.500000,265.340942 669.500000,276.825378 
	C658.110229,275.408539 646.423950,273.954803 633.697632,272.371674 
	C635.351929,285.065918 636.885742,296.835785 638.405273,308.496338 
	C627.320129,308.496338 615.903809,308.496338 604.577942,308.496338 
	C606.082703,296.957886 607.617737,285.187531 609.254944,272.633698 
	C602.672668,273.303772 596.840881,273.897430 590.610657,274.717407 
z"/>
<path fill="#0D3464" opacity="1.000000" stroke="none" 
	d="
M621.007019,590.000000 
	C615.142090,590.000000 609.770935,590.000000 604.638062,590.000000 
	C606.080322,578.984009 607.610840,567.294250 609.288086,554.483765 
	C597.022644,555.995056 585.289124,557.440796 573.500000,558.893433 
	C573.500000,547.589111 573.500000,536.353821 573.500000,525.481079 
	C585.083130,526.883545 596.706970,528.290833 609.331848,529.819397 
	C607.592773,516.885498 606.011597,505.126221 604.521423,494.043549 
	C615.797058,494.043549 627.203674,494.043549 638.338928,494.043549 
	C636.889038,505.044769 635.348938,516.731140 633.633667,529.746094 
	C646.014832,528.282776 657.772766,526.893127 669.500000,525.507080 
	C669.500000,536.210815 669.500000,547.311523 669.500000,558.886719 
	C658.020569,557.462219 646.322510,556.010559 633.713501,554.445862 
	C635.342041,567.022156 636.852295,578.685120 638.317444,590.000000 
	C633.088074,590.000000 627.294434,590.000000 621.007019,590.000000 
z"/>
</svg>