<?xml version="1.0" encoding="UTF-8"?>
<svg version="1.1" xmlns="http://www.w3.org/2000/svg" width="800" height="800">
<path d="M0 0 C1.17694427 -0.00794586 2.35388855 -0.01589172 3.5664978 -0.02407837 C20.88042864 -0.11373633 37.78127723 1.04456671 54.9375 3.375 C56.07114487 3.52835815 56.07114487 3.52835815 57.22769165 3.68481445 C61.10662354 4.2240069 64.96066926 4.85650743 68.8125 5.5625 C70.51865479 5.8733252 70.51865479 5.8733252 72.25927734 6.19042969 C137.45957913 18.62567674 200.04431351 49.41378305 248.9375 94.375 C250.30814323 95.58827308 251.68293015 96.79688676 253.0625 98 C253.70316406 98.56074219 254.34382812 99.12148437 255.00390625 99.69921875 C256.31600454 100.8363706 257.6366668 101.96370114 258.96484375 103.08203125 C263.05696778 106.56151483 266.62883281 110.18706779 270.09765625 114.28515625 C272.07511436 116.53131356 274.16711266 118.60160347 276.3125 120.6875 C281.27524368 125.5999456 285.60794736 130.90421438 289.9375 136.375 C290.80031879 137.44698698 291.66361515 138.5185897 292.52734375 139.58984375 C338.66094479 197.13983954 367.8316367 267.71847005 373.9375 341.375 C374.02435059 342.39376221 374.11120117 343.41252441 374.20068359 344.4621582 C379.11190204 408.70036639 369.14891878 472.65192478 341.91992188 531.25 C340.95535284 533.33638393 340.01477313 535.43220768 339.078125 537.53125 C326.31464872 565.80654233 308.61809605 591.49587679 288.9375 615.375 C288.52677246 615.87596191 288.11604492 616.37692383 287.69287109 616.89306641 C282.04252076 623.76466807 276.24730854 630.27043688 269.8359375 636.44921875 C267.87742696 638.23728223 267.87742696 638.23728223 266.9375 640.375 C266.2775 640.375 265.6175 640.375 264.9375 640.375 C264.6075 641.365 264.2775 642.355 263.9375 643.375 C262.546875 644.77734375 262.546875 644.77734375 260.6875 646.3125 C257.45579266 649.04613058 254.32451602 651.85390873 251.23608398 654.74633789 C245.34871989 660.25581136 239.35015226 665.47707607 232.9375 670.375 C232.09759521 671.0237207 232.09759521 671.0237207 231.24072266 671.68554688 C215.04445563 684.17650552 198.18908598 695.15626192 180.29589844 705.06445312 C178.27333472 706.1883788 176.26383345 707.33133439 174.2578125 708.484375 C136.02686257 729.85132623 91.2055446 742.98619262 47.9375 748.375 C47.26933258 748.46080322 46.60116516 748.54660645 45.91275024 748.63500977 C30.70521808 750.5398334 15.56200676 750.77385559 0.25 750.75 C-1.00474121 750.74978851 -2.25948242 750.74957703 -3.55224609 750.74935913 C-23.37049811 750.71607845 -42.53197623 749.82371412 -62.0625 746.375 C-63.16706543 746.18776367 -64.27163086 746.00052734 -65.40966797 745.80761719 C-128.20369544 734.96265316 -189.42881849 707.82975892 -238.0625 666.375 C-239.18092778 665.43091636 -240.2994213 664.4869106 -241.41796875 663.54296875 C-256.81318395 650.49850728 -272.31911122 637.02495912 -284.859375 621.140625 C-286.88151734 618.602191 -288.96795644 616.14578272 -291.09179688 613.69335938 C-297.23664918 606.57692155 -302.74535925 599.12420641 -308.0625 591.375 C-308.72765625 590.41207031 -309.3928125 589.44914063 -310.078125 588.45703125 C-342.42186381 540.79603402 -363.62596717 487.40200342 -372.0625 430.375 C-372.30009033 428.77519287 -372.30009033 428.77519287 -372.54248047 427.14306641 C-386.12257488 331.7608102 -362.04560073 232.26227202 -303.46875 152.8828125 C-298.1813299 145.90293093 -292.6872744 139.08525718 -287.0625 132.375 C-286.60568848 131.82650391 -286.14887695 131.27800781 -285.67822266 130.71289062 C-279.18394509 122.94476041 -272.40666789 115.53950824 -265.25 108.375 C-264.21069336 107.33448486 -264.21069336 107.33448486 -263.15039062 106.27294922 C-258.61001818 101.78136301 -253.8994698 97.54296725 -249.0625 93.375 C-247.99090622 92.42592389 -246.92052076 91.47548106 -245.8515625 90.5234375 C-237.3630009 83.04529199 -228.41749013 76.39133739 -219.17431641 69.87841797 C-217.27728897 68.52790988 -215.40559204 67.15127665 -213.54296875 65.75390625 C-203.59834857 58.33837546 -192.92992935 52.32752109 -182.0625 46.375 C-181.1638623 45.87709961 -180.26522461 45.37919922 -179.33935547 44.86621094 C-141.046273 23.74895511 -99.21075673 10.15171338 -56.0625 3.375 C-55.06911621 3.20983887 -54.07573242 3.04467773 -53.05224609 2.87451172 C-35.45507729 0.05488252 -17.77907649 0.06284223 0 0 Z M-90.1875 37.5 C-91.25871094 37.78359375 -92.32992187 38.0671875 -93.43359375 38.359375 C-103.15123963 40.98576578 -112.46365569 44.17538523 -122.0625 47.375 C-122.3925 96.875 -122.7225 146.375 -123.0625 197.375 C-129.69323759 193.15543972 -135.94083947 189.12483296 -142.0625 184.3125 C-143.53146655 183.17437878 -145.0015615 182.0377128 -146.47265625 180.90234375 C-147.22434082 180.32210449 -147.97602539 179.74186523 -148.75048828 179.14404297 C-159.43277006 170.97046179 -170.37516732 163.13250946 -181.28833008 155.27172852 C-193.46926237 146.48895036 -205.5322051 137.54696997 -217.53173828 128.51831055 C-222.99839386 124.40956493 -228.51355001 120.37212499 -234.0625 116.375 C-239.81273196 121.16172125 -245.15091701 126.27067238 -250.4375 131.5625 C-251.283125 132.40893066 -252.12875 133.25536133 -253 134.12744141 C-257.96121163 139.13761236 -262.6598575 144.16782224 -266.99609375 149.73046875 C-269.61728907 153.08500416 -272.3662491 156.32088006 -275.125 159.5625 C-275.61548828 160.1404834 -276.10597656 160.7184668 -276.61132812 161.31396484 C-277.76083814 162.6683911 -278.91153528 164.0218097 -280.0625 165.375 C-278.67616659 168.64902212 -277.21743288 170.30313248 -274.34375 172.37109375 C-273.58562012 172.92289307 -272.82749023 173.47469238 -272.04638672 174.04321289 C-271.2267041 174.62707764 -270.40702148 175.21094238 -269.5625 175.8125 C-268.28850342 176.73567017 -268.28850342 176.73567017 -266.98876953 177.67749023 C-264.35266844 179.58513717 -261.7085989 181.48125246 -259.0625 183.375 C-256.01934574 185.56043606 -252.97806049 187.74845711 -249.9375 189.9375 C-249.20047852 190.46698242 -248.46345703 190.99646484 -247.70410156 191.54199219 C-241.77662198 195.81674182 -235.97274912 200.23945564 -230.1862793 204.70239258 C-225.20416209 208.5337601 -220.14178495 212.2277199 -215.00976562 215.85498047 C-211.39911046 218.40959154 -207.84092978 221.02060726 -204.3125 223.6875 C-199.31527866 227.45873637 -194.26416391 231.14894471 -189.1875 234.8125 C-188.49301758 235.31370361 -187.79853516 235.81490723 -187.08300781 236.33129883 C-182.31660809 239.76456551 -177.53781375 243.18039289 -172.75732422 246.59399414 C-172.11161972 247.05513863 -171.46591522 247.51628311 -170.80064392 247.99140167 C-169.22129772 249.11931694 -167.64190374 250.24716531 -166.0625 251.375 C-176.70306174 251.67841272 -187.34256818 251.90828602 -197.98660088 252.04855824 C-202.93127852 252.11594243 -207.87296301 252.20705956 -212.81591797 252.35571289 C-252.0553819 253.50507243 -252.0553819 253.50507243 -263.15646362 243.48554993 C-264.26974011 242.36833428 -265.36071258 241.22831882 -266.42495728 240.06430054 C-269.30948121 237.08860546 -272.70701313 234.78666821 -276.0625 232.375 C-277.36411448 231.39867362 -278.66385781 230.41984299 -279.9609375 229.4375 C-284.5003848 226.03347001 -289.08879522 222.69837066 -293.6875 219.375 C-294.43386719 218.83488281 -295.18023437 218.29476562 -295.94921875 217.73828125 C-299.94102655 214.86215113 -303.96342245 212.10771837 -308.0625 209.375 C-311.0325 215.645 -314.0025 221.915 -317.0625 228.375 C-307.13198645 236.54364824 -296.76352836 244.24098109 -286.0625 251.375 C-299.5925 251.705 -313.1225 252.035 -327.0625 252.375 C-331.07092431 261.8089707 -331.07092431 261.8089707 -334.265625 271.35546875 C-334.6059375 272.53947266 -334.94625 273.72347656 -335.296875 274.94335938 C-335.63203125 276.13767578 -335.9671875 277.33199219 -336.3125 278.5625 C-336.663125 279.76841797 -337.01375 280.97433594 -337.375 282.21679688 C-337.71015625 283.39693359 -338.0453125 284.57707031 -338.390625 285.79296875 C-338.6887207 286.84250732 -338.98681641 287.8920459 -339.29394531 288.97338867 C-340.21419864 293.04641585 -340.60137179 297.2248461 -341.0625 301.375 C-252.9525 301.375 -164.8425 301.375 -74.0625 301.375 C-74.0625 213.265 -74.0625 125.155 -74.0625 34.375 C-79.72308477 34.375 -84.74897608 36.01733254 -90.1875 37.5 Z M73.9375 34.375 C73.9375 122.485 73.9375 210.595 73.9375 301.375 C162.0475 301.375 250.1575 301.375 340.9375 301.375 C340.1527078 293.85851767 340.1527078 293.85851767 338.484375 286.7734375 C338.1970752 285.79511963 337.90977539 284.81680176 337.61376953 283.80883789 C337.30810059 282.79942139 337.00243164 281.79000488 336.6875 280.75 C336.37538574 279.70126709 336.06327148 278.65253418 335.74169922 277.57202148 C332.83041146 264.13459016 332.83041146 264.13459016 326.9375 252.375 C323.90942956 252.2146444 320.90164546 252.11539552 317.87109375 252.05859375 C316.96247086 252.03781265 316.05384796 252.01703156 315.11769104 251.99562073 C312.20354054 251.93002328 309.28929696 251.8711932 306.375 251.8125 C304.40428709 251.76932446 302.43358374 251.72571049 300.46289062 251.68164062 C295.62119012 251.57433157 290.77939563 251.47309325 285.9375 251.375 C286.4756282 250.98789856 287.01375641 250.60079712 287.56819153 250.20196533 C299.32488821 241.75075038 299.32488821 241.75075038 311 233.1875 C311.93972656 232.49269531 312.87945313 231.79789063 313.84765625 231.08203125 C316.02500164 229.54149614 316.02500164 229.54149614 316.9375 227.375 C316.05402254 225.05816547 316.05402254 225.05816547 314.6484375 222.44921875 C314.12523926 221.43480713 313.60204102 220.42039551 313.06298828 219.37524414 C312.19649658 217.73543579 312.19649658 217.73543579 311.3125 216.0625 C310.72581543 214.94415771 310.13913086 213.82581543 309.53466797 212.67358398 C301.90421618 198.31283369 293.35581479 184.62529333 283.9375 171.375 C280.38111741 172.66238712 277.60162553 174.16974491 274.6015625 176.46484375 C273.38762817 177.38571777 273.38762817 177.38571777 272.14916992 178.32519531 C271.29556885 178.98100586 270.44196777 179.63681641 269.5625 180.3125 C267.75959839 181.68162691 265.9562091 183.05011185 264.15234375 184.41796875 C263.26530762 185.09263184 262.37827148 185.76729492 261.46435547 186.46240234 C258.04332636 189.05180737 254.59049838 191.59556844 251.125 194.125 C250.22273682 194.78459717 250.22273682 194.78459717 249.30224609 195.45751953 C248.106551 196.33125942 246.91059115 197.2046371 245.71435547 198.07763672 C242.70238889 200.27681099 239.69491886 202.4821127 236.6875 204.6875 C236.07575928 205.13601318 235.46401855 205.58452637 234.83374023 206.04663086 C229.78000306 209.75348559 224.73292011 213.46933523 219.6875 217.1875 C218.88932861 217.77563477 218.09115723 218.36376953 217.26879883 218.96972656 C213.22304714 221.95144677 209.17874934 224.93511224 205.13671875 227.921875 C204.3384668 228.51121826 203.54021484 229.10056152 202.71777344 229.70776367 C201.24779895 230.79308768 199.77832096 231.87908481 198.30957031 232.96606445 C196.81675143 234.06784982 195.31018272 235.15113054 193.79394531 236.22045898 C191.49366738 237.95549768 189.41109983 239.73245718 187.27636719 241.65649414 C174.3375249 252.7866605 162.88992198 253.14255279 146.3125 252.6875 C143.93753529 252.67046644 141.56252039 252.65935914 139.1875 252.65429688 C133.43513394 252.62936591 127.68770419 252.5318677 121.9375 252.375 C120.14749051 230.59705775 120.14749051 230.59705775 124.4453125 224.09326172 C128.51055946 220.13780152 133.40666169 217.50753924 138.37060547 214.83349609 C142.64450948 212.40508611 146.47017498 209.41066745 150.375 206.4375 C151.96563914 205.25927293 153.55809631 204.08349636 155.15234375 202.91015625 C155.94237793 202.32637207 156.73241211 201.74258789 157.54638672 201.14111328 C161.50741162 198.21543897 165.47265717 195.29549694 169.4375 192.375 C171.02085379 191.2083611 172.60418712 190.04169442 174.1875 188.875 C183.6875 181.875 193.1875 174.875 202.6875 167.875 C203.47165283 167.29717773 204.25580566 166.71935547 205.0637207 166.12402344 C206.6428868 164.96047866 208.22215072 163.79706662 209.80151367 162.63378906 C213.82442899 159.67045312 217.84547964 156.70464146 221.86328125 153.734375 C231.16268547 146.86351292 240.50074907 140.05615808 249.9375 133.375 C248.61629172 130.44269807 247.19111803 128.38835101 244.8984375 126.140625 C244.31835938 125.56699219 243.73828125 124.99335938 243.140625 124.40234375 C242.53734375 123.81582031 241.9340625 123.22929687 241.3125 122.625 C240.39597656 121.72201172 240.39597656 121.72201172 239.4609375 120.80078125 C237.95761376 119.32094695 236.44815144 117.84735324 234.9375 116.375 C232.07496643 117.72216818 229.59463196 119.25273056 227.05859375 121.140625 C225.93904297 121.97013672 225.93904297 121.97013672 224.796875 122.81640625 C223.99765625 123.41324219 223.1984375 124.01007813 222.375 124.625 C220.65500821 125.90112294 218.93495442 127.17716231 217.21484375 128.453125 C216.33683105 129.10603516 215.45881836 129.75894531 214.55419922 130.43164062 C210.52408904 133.42470622 206.48063986 136.39957292 202.4375 139.375 C197.62622845 142.91826163 192.81649866 146.46356395 188.01171875 150.015625 C180.98182782 155.20935039 173.9498237 160.39209705 166.8125 165.4375 C161.59234527 169.12986043 156.50266896 172.97314509 151.4375 176.875 C141.89699596 184.21782695 132.4080662 191.39181931 121.9375 197.375 C121.9375 147.875 121.9375 98.375 121.9375 47.375 C98.96127878 38.67163776 98.96127878 38.67163776 73.9375 34.375 Z M-341.0625 449.375 C-340.2777078 456.89148233 -340.2777078 456.89148233 -338.609375 463.9765625 C-338.3220752 464.95488037 -338.03477539 465.93319824 -337.73876953 466.94116211 C-337.43310059 467.95057861 -337.12743164 468.95999512 -336.8125 470 C-336.50038574 471.04873291 -336.18827148 472.09746582 -335.86669922 473.17797852 C-332.95541146 486.61540984 -332.95541146 486.61540984 -327.0625 498.375 C-324.03442956 498.5353556 -321.02664546 498.63460448 -317.99609375 498.69140625 C-316.63315941 498.7225779 -316.63315941 498.7225779 -315.24269104 498.75437927 C-312.32854054 498.81997672 -309.41429696 498.8788068 -306.5 498.9375 C-304.52928709 498.98067554 -302.55858374 499.02428951 -300.58789062 499.06835938 C-295.74619012 499.17566843 -290.90439563 499.27690675 -286.0625 499.375 C-286.97088623 500.02146484 -287.87927246 500.66792969 -288.81518555 501.33398438 C-295.54248487 506.12671968 -302.25951259 510.92834409 -308.875 515.875 C-309.56658203 516.38546875 -310.25816406 516.8959375 -310.97070312 517.421875 C-314.54435822 519.92183576 -314.54435822 519.92183576 -317.0625 523.375 C-316.09817928 525.87086203 -316.09817928 525.87086203 -314.58984375 528.703125 C-314.02644287 529.80301758 -313.46304199 530.90291016 -312.88256836 532.03613281 C-312.2560241 533.23293466 -311.62847812 534.42921255 -311 535.625 C-310.68692902 536.22614624 -310.37385803 536.82729248 -310.05130005 537.44665527 C-302.4196501 552.06558783 -293.74985559 566.02557144 -284.0625 579.375 C-279.01510652 577.79035321 -275.39557922 574.73343193 -271.3125 571.5 C-265.47364597 566.95150045 -259.57284774 562.54368607 -253.5 558.3125 C-247.31399234 553.99319197 -241.23635625 549.55769865 -235.21582031 545.01098633 C-227.68967178 539.32780755 -220.08868504 533.74755039 -212.49023438 528.16162109 C-210.07997461 526.38785994 -207.67236576 524.61056356 -205.265625 522.83203125 C-204.46680908 522.24212402 -203.66799316 521.6522168 -202.8449707 521.04443359 C-201.37425291 519.95820017 -199.9039701 518.87137729 -198.43432617 517.78369141 C-196.94157723 516.68200257 -195.43508989 515.59880399 -193.91894531 514.52954102 C-191.61866738 512.79450232 -189.53609983 511.01754282 -187.40136719 509.09350586 C-174.4625249 497.9633395 -163.01492198 497.60744721 -146.4375 498.0625 C-144.06253529 498.07953356 -141.68752039 498.09064086 -139.3125 498.09570312 C-133.56013394 498.12063409 -127.81270419 498.2181323 -122.0625 498.375 C-122.09446143 502.4295638 -122.17738792 506.48154872 -122.26953125 510.53515625 C-122.27795044 511.68197876 -122.28636963 512.82880127 -122.29504395 514.01037598 C-122.55234815 523.53063159 -122.55234815 523.53063159 -125.265625 526.78198242 C-128.05264351 529.05985516 -130.884043 530.68893679 -134.0625 532.375 C-135.67561244 533.50993274 -137.28818181 534.64621239 -138.875 535.81762695 C-140.6143951 537.10078315 -142.37596052 538.3472622 -144.14453125 539.58984375 C-148.55609205 542.7099402 -152.90392156 545.91458692 -157.25 549.125 C-158.05244141 549.71756592 -158.85488281 550.31013184 -159.68164062 550.9206543 C-161.32360709 552.13367825 -162.96537017 553.34697755 -164.60693359 554.56054688 C-168.58899212 557.50294685 -172.57593938 560.4387044 -176.5625 563.375 C-178.14585789 564.54163334 -179.7291912 565.70830004 -181.3125 566.875 C-190.8125 573.875 -200.3125 580.875 -209.8125 587.875 C-210.5972168 588.4532251 -211.38193359 589.0314502 -212.19042969 589.62719727 C-213.76394825 590.78660642 -215.33751546 591.94594954 -216.91113281 593.10522461 C-221.02004639 596.13237424 -225.12795216 599.16087851 -229.234375 602.19140625 C-230.50958008 603.13209961 -230.50958008 603.13209961 -231.81054688 604.09179688 C-233.42674847 605.28407674 -235.04265493 606.47675681 -236.65820312 607.66992188 C-241.09871835 610.94494754 -245.56419341 614.17977429 -250.0625 617.375 C-248.74129172 620.30730193 -247.31611803 622.36164899 -245.0234375 624.609375 C-244.44335938 625.18300781 -243.86328125 625.75664063 -243.265625 626.34765625 C-242.66234375 626.93417969 -242.0590625 627.52070312 -241.4375 628.125 C-240.82648438 628.72699219 -240.21546875 629.32898438 -239.5859375 629.94921875 C-238.08261376 631.42905305 -236.57315144 632.90264676 -235.0625 634.375 C-232.19996643 633.02783182 -229.71963196 631.49726944 -227.18359375 629.609375 C-226.06404297 628.77986328 -226.06404297 628.77986328 -224.921875 627.93359375 C-224.12265625 627.33675781 -223.3234375 626.73992187 -222.5 626.125 C-220.78000821 624.84887706 -219.05995442 623.57283769 -217.33984375 622.296875 C-216.46183105 621.64396484 -215.58381836 620.99105469 -214.67919922 620.31835938 C-210.64908863 617.32529348 -206.60558697 614.35049951 -202.5625 611.375 C-200.98429706 610.21234538 -199.40617236 609.04958453 -197.828125 607.88671875 C-197.04501953 607.30970215 -196.26191406 606.73268555 -195.45507812 606.13818359 C-193.02712433 604.34893029 -190.59946677 602.5592757 -188.171875 600.76953125 C-180.37636914 595.02284423 -172.57714163 589.28143558 -164.76464844 583.55786133 C-160.50874095 580.43872015 -156.25885862 577.31148872 -152.01171875 574.18041992 C-150.38969776 572.98476151 -148.76730678 571.78960483 -147.14453125 570.5949707 C-143.29828251 567.76322497 -139.45626537 564.92621132 -135.625 562.07421875 C-134.59342773 561.30948242 -134.59342773 561.30948242 -133.54101562 560.52929688 C-132.25611857 559.57672265 -130.9734302 558.6211593 -129.69335938 557.66210938 C-127.15312059 555.78354094 -125.08259602 554.38169867 -122.0625 553.375 C-122.0625 602.875 -122.0625 652.375 -122.0625 703.375 C-98.86063035 712.28453995 -98.86063035 712.28453995 -74.0625 716.375 C-74.0625 628.265 -74.0625 540.155 -74.0625 449.375 C-162.1725 449.375 -250.2825 449.375 -341.0625 449.375 Z M73.9375 449.375 C73.9375 537.485 73.9375 625.595 73.9375 716.375 C79.7060821 715.73404643 84.17417553 715.21939212 89.5546875 713.66796875 C91.33166016 713.1584668 91.33166016 713.1584668 93.14453125 712.63867188 C94.35496094 712.28353516 95.56539063 711.92839844 96.8125 711.5625 C98.01519531 711.21896484 99.21789062 710.87542969 100.45703125 710.52148438 C107.77079718 708.40517751 114.74522198 705.99037383 121.9375 703.375 C121.9375 653.545 121.9375 603.715 121.9375 552.375 C141.421875 566.12867647 141.421875 566.12867647 148.3125 571.25 C149.91402651 572.43494447 151.51559011 573.61983883 153.1171875 574.8046875 C154.31166504 575.68979004 154.31166504 575.68979004 155.53027344 576.59277344 C159.49403052 579.52740089 163.46614121 582.45067298 167.4375 585.375 C169.02087425 586.54161113 170.60420757 587.70827783 172.1875 588.875 C172.97125 589.4525 173.755 590.03 174.5625 590.625 C204.25 612.5 204.25 612.5 233.9375 634.375 C240.06078347 629.30022397 245.68905219 623.80693106 251.3125 618.1875 C252.20710937 617.30513672 253.10171875 616.42277344 254.0234375 615.51367188 C259.32040188 610.22825611 264.22892882 604.78153216 268.89672852 598.93212891 C271.69937542 595.42035433 274.60391194 591.99778353 277.50390625 588.56640625 C279.30246687 586.2535535 279.30246687 586.2535535 278.9375 582.375 C277.60602654 580.79350302 277.60602654 580.79350302 275.7109375 579.4921875 C275.01629395 578.97019775 274.32165039 578.44820801 273.60595703 577.91040039 C272.84911621 577.36246826 272.09227539 576.81453613 271.3125 576.25 C270.14823486 575.38459595 270.14823486 575.38459595 268.96044922 574.50170898 C266.63050622 572.77705452 264.287514 571.07217562 261.9375 569.375 C261.31939453 568.92817871 260.70128906 568.48135742 260.06445312 568.02099609 C257.26754521 566.00661368 254.45844372 564.01006244 251.64453125 562.01953125 C244.82174609 557.17641432 238.12083082 552.1631315 231.39306641 547.18945312 C227.41100788 544.24705315 223.42406062 541.3112956 219.4375 538.375 C217.85414211 537.20836666 216.2708088 536.04169996 214.6875 534.875 C213.511875 534.00875 213.511875 534.00875 212.3125 533.125 C205.1875 527.875 205.1875 527.875 202.80932617 526.12255859 C201.23670334 524.96385203 199.66395085 523.80532142 198.09106445 522.64697266 C193.96774285 519.60999676 189.84717018 516.56938266 185.73046875 513.5234375 C184.44849609 512.57597656 184.44849609 512.57597656 183.140625 511.609375 C181.51087948 510.40478049 179.88192216 509.19911857 178.25390625 507.9921875 C177.51398438 507.445625 176.7740625 506.8990625 176.01171875 506.3359375 C175.36807373 505.85946777 174.72442871 505.38299805 174.0612793 504.89208984 C171.39575553 502.98801298 168.66570387 501.18778214 165.9375 499.375 C176.57806174 499.07158728 187.21756818 498.84171398 197.86160088 498.70144176 C202.80627852 498.63405757 207.74796301 498.54294044 212.69091797 498.39428711 C251.9303819 497.24492757 251.9303819 497.24492757 263.03146362 507.26445007 C264.14474011 508.38166572 265.23571258 509.52168118 266.29995728 510.68569946 C269.18448121 513.66139454 272.58201313 515.96333179 275.9375 518.375 C277.23911448 519.35132638 278.53885781 520.33015701 279.8359375 521.3125 C284.3753848 524.71652999 288.96379522 528.05162934 293.5625 531.375 C294.68205078 532.18517578 294.68205078 532.18517578 295.82421875 533.01171875 C299.81602655 535.88784887 303.83842245 538.64228163 307.9375 541.375 C312.3925 531.97 312.3925 531.97 316.9375 522.375 C307.00698645 514.20635176 296.63852836 506.50901891 285.9375 499.375 C299.4675 499.045 312.9975 498.715 326.9375 498.375 C329.48725679 492.00060803 331.90250597 485.77818882 333.9375 479.25 C334.19096191 478.44103271 334.44442383 477.63206543 334.70556641 476.79858398 C339.17244876 463.30656262 339.17244876 463.30656262 340.9375 449.375 C252.8275 449.375 164.7175 449.375 73.9375 449.375 Z " fill="#0D3464" transform="translate(400.0625,24.625)"/>
</svg>
